<svg width="11" height="15" viewBox="0 0 11 15" fill="none" xmlns="http://www.w3.org/2000/svg">
<path d="M8.72639 0.27674C6.66279 -0.0692162 4.54488 -0.0692161 2.48128 0.27674C1.72737 0.40313 1.12698 0.981907 0.975818 1.73235C0.283313 5.17031 0.245528 8.70803 0.864445 12.16L1.11643 13.5654C1.19413 13.9988 1.72244 14.172 2.04163 13.8687L5.0832 10.9792C5.37496 10.7021 5.83271 10.7021 6.12447 10.9792L9.16604 13.8687C9.48523 14.172 10.0135 13.9988 10.0912 13.5654L10.3432 12.16C10.9621 8.70804 10.9244 5.17031 10.2319 1.73235C10.0807 0.981906 9.4803 0.40313 8.72639 0.27674Z" fill="#6C5FBC"/>
</svg>
